<mxfile>
    <diagram id="MOoSVjWHhdyFBWPGfHKf" name="Page-1">
        <mxGraphModel dx="1099" dy="644" grid="0" gridSize="10" guides="1" tooltips="1" connect="1" arrows="1" fold="1" page="1" pageScale="1" pageWidth="827" pageHeight="1169" background="#ffffff" math="0" shadow="0">
            <root>
                <mxCell id="0"/>
                <mxCell id="1" parent="0"/>
                <mxCell id="2" value="&lt;font style=&quot;font-size: 18px&quot;&gt;Browser&lt;/font&gt;" style="rounded=0;whiteSpace=wrap;html=1;fillColor=#1ba1e2;strokeColor=#006EAF;fontColor=#ffffff;" vertex="1" parent="1">
                    <mxGeometry x="83" y="226" width="120" height="60" as="geometry"/>
                </mxCell>
                <mxCell id="4" value="cache" style="rounded=1;whiteSpace=wrap;html=1;fillColor=#1ba1e2;fontColor=#ffffff;strokeColor=#006EAF;fontSize=27;" vertex="1" parent="1">
                    <mxGeometry x="325" y="155" width="89" height="209" as="geometry"/>
                </mxCell>
                <mxCell id="8" value="&lt;span style=&quot;font-size: 18px&quot;&gt;Server&lt;/span&gt;" style="rounded=0;whiteSpace=wrap;html=1;fillColor=#1ba1e2;strokeColor=#006EAF;fontColor=#ffffff;" vertex="1" parent="1">
                    <mxGeometry x="549" y="220" width="120" height="60" as="geometry"/>
                </mxCell>
                <mxCell id="10" value="" style="endArrow=classic;html=1;fontSize=31;fontColor=#000000;exitX=1;exitY=0.25;exitDx=0;exitDy=0;strokeWidth=2;dashed=1;strokeColor=#3399FF;" edge="1" parent="1" source="2">
                    <mxGeometry width="50" height="50" relative="1" as="geometry">
                        <mxPoint x="388" y="239" as="sourcePoint"/>
                        <mxPoint x="318" y="241" as="targetPoint"/>
                        <Array as="points"/>
                    </mxGeometry>
                </mxCell>
                <mxCell id="11" value="" style="endArrow=classic;html=1;fontSize=31;fontColor=#000000;exitX=1;exitY=0.25;exitDx=0;exitDy=0;strokeWidth=2;dashed=1;strokeColor=#3399FF;" edge="1" parent="1">
                    <mxGeometry width="50" height="50" relative="1" as="geometry">
                        <mxPoint x="424" y="243" as="sourcePoint"/>
                        <mxPoint x="539" y="243" as="targetPoint"/>
                        <Array as="points">
                            <mxPoint x="481" y="243"/>
                        </Array>
                    </mxGeometry>
                </mxCell>
                <mxCell id="12" value="" style="endArrow=classic;html=1;fontSize=31;fontColor=#000000;strokeWidth=2;dashed=1;strokeColor=#3399FF;" edge="1" parent="1">
                    <mxGeometry width="50" height="50" relative="1" as="geometry">
                        <mxPoint x="317" y="270" as="sourcePoint"/>
                        <mxPoint x="207" y="270" as="targetPoint"/>
                        <Array as="points"/>
                    </mxGeometry>
                </mxCell>
                <mxCell id="13" value="" style="endArrow=classic;html=1;fontSize=31;fontColor=#000000;strokeWidth=2;dashed=1;strokeColor=#3399FF;" edge="1" parent="1">
                    <mxGeometry width="50" height="50" relative="1" as="geometry">
                        <mxPoint x="539" y="271" as="sourcePoint"/>
                        <mxPoint x="429" y="271" as="targetPoint"/>
                        <Array as="points"/>
                    </mxGeometry>
                </mxCell>
            </root>
        </mxGraphModel>
    </diagram>
</mxfile>